<svg xmlns="http://www.w3.org/2000/svg" viewBox="0 0 720 256" width="720" height="256">
  <title>factorai</title>
  <rect width="720" height="256" fill="#272B31"/>
  <g transform="translate(64 64) scale(0.250000)">
    <mask id="lockup-ports"><rect width="512" height="512" rx="112" fill="#fff"/><g fill="#000"><rect x="0" y="96" width="41.6" height="64"/><rect x="470.4" y="96" width="41.6" height="64"/><rect x="0" y="224" width="41.6" height="64"/><rect x="470.4" y="224" width="41.6" height="64"/><rect x="0" y="352" width="41.6" height="64"/><rect x="470.4" y="352" width="41.6" height="64"/></g></mask>
    <path mask="url(#lockup-ports)" fill="#FFB020" fill-rule="evenodd" d="M0 0H512V512H0ZM153.6 136H377.6V198.4H233.6V232H332.8L273.6 291.2H233.6V379.2H153.6Z"/>
  </g>
  <path fill="#F4F5F8" d="M295.7 107.6L295.7 118.76L282.47 118.76L282.47 168.74L268.3 168.74L268.3 118.76L257.09 118.76L257.09 107.6L268.3 107.6L268.3 101.75Q268.3 95.68 270.88 91.61Q273.45 87.53 277.74 85.48Q282.03 83.43 287.28 83.43Q291.05 83.43 293.95 84.03Q296.85 84.63 298.22 85.12L295.32 96.17Q294.39 95.9 293.05 95.6Q291.71 95.3 289.91 95.3Q285.91 95.3 284.19 97.27Q282.47 99.23 282.47 102.84L282.47 107.6L295.7 107.6ZM319.32 170.0Q313.52 170.0 308.87 167.89Q304.22 165.79 301.54 161.69Q298.86 157.59 298.86 151.57Q298.86 144.68 302.23 140.88Q305.59 137.08 310.92 135.36Q316.25 133.63 322.16 133.03Q330.15 132.16 333.7 131.42Q337.25 130.68 337.25 127.51L337.25 127.23Q337.25 122.75 334.52 120.26Q331.79 117.77 326.59 117.77Q321.23 117.77 318.06 120.12Q314.89 122.48 313.79 125.48L300.61 122.8Q303.29 114.71 310.32 110.77Q317.35 106.84 326.54 106.84Q330.86 106.84 335.26 107.85Q339.66 108.86 343.32 111.24Q346.99 113.62 349.23 117.69Q351.47 121.77 351.47 127.89L351.47 168.74L337.86 168.74L337.86 160.32L337.31 160.32Q335.29 164.26 330.86 167.13Q326.43 170.0 319.32 170.0ZM322.98 159.45Q329.54 159.45 333.45 155.67Q337.36 151.9 337.36 146.81L337.36 139.59Q336.38 140.36 333.86 140.93Q331.35 141.51 328.53 141.92Q325.72 142.33 323.86 142.6Q319.04 143.26 315.84 145.23Q312.65 147.2 312.65 151.41Q312.65 155.34 315.54 157.39Q318.44 159.45 322.98 159.45ZM390.29 170.0Q381.38 170.0 374.81 166.04Q368.25 162.07 364.67 154.99Q361.09 147.91 361.09 138.5Q361.09 128.98 364.67 121.85Q368.25 114.71 374.81 110.77Q381.38 106.84 390.29 106.84Q400.52 106.84 407.6 111.95Q414.68 117.06 416.65 126.03L403.36 128.82Q402.21 124.06 398.88 121.22Q395.54 118.38 390.4 118.38Q382.96 118.38 379.27 124.12Q375.58 129.86 375.58 138.45Q375.58 144.08 377.22 148.62Q378.86 153.16 382.14 155.81Q385.42 158.46 390.4 158.46Q395.65 158.46 399.01 155.48Q402.38 152.5 403.52 147.58L416.81 150.37Q414.85 159.5 407.74 164.75Q400.63 170.0 390.29 170.0ZM454.48 107.6L454.48 118.76L442.67 118.76L442.67 151.52Q442.67 154.85 444.06 156.41Q445.46 157.97 448.74 157.97Q449.73 157.97 451.31 157.72Q452.9 157.48 453.94 157.26L456.18 168.25Q453.83 168.96 451.37 169.26Q448.9 169.56 446.66 169.56Q437.86 169.56 433.15 165.19Q428.45 160.81 428.45 152.72L428.45 118.76L419.76 118.76L419.76 107.6L428.45 107.6L428.45 93.05L442.67 93.05L442.67 107.6L454.48 107.6ZM488.38 170.0Q479.46 170.0 472.9 166.04Q466.34 162.07 462.76 154.99Q459.17 147.91 459.17 138.5Q459.17 128.98 462.76 121.85Q466.34 114.71 472.9 110.77Q479.46 106.84 488.38 106.84Q497.29 106.84 503.85 110.77Q510.42 114.71 514.03 121.85Q517.64 128.98 517.64 138.5Q517.64 147.91 514.03 154.99Q510.42 162.07 503.85 166.04Q497.29 170.0 488.38 170.0ZM488.38 158.46Q493.35 158.46 496.64 155.78Q499.92 153.1 501.56 148.56Q503.2 144.02 503.2 138.45Q503.2 132.81 501.56 128.27Q499.92 123.73 496.64 121.05Q493.35 118.38 488.38 118.38Q483.46 118.38 480.17 121.05Q476.89 123.73 475.28 128.27Q473.67 132.81 473.67 138.45Q473.67 144.02 475.28 148.56Q476.89 153.1 480.17 155.78Q483.46 158.46 488.38 158.46ZM527.25 168.74L527.25 107.6L541.03 107.6L541.03 117.83L541.69 117.83Q543.33 112.52 547.43 109.65Q551.53 106.78 556.78 106.78Q559.52 106.78 561.98 107.16L561.98 120.23Q561.1 120.02 559.13 119.77Q557.16 119.52 555.25 119.52Q549.29 119.52 545.38 123.21Q541.47 126.91 541.47 132.76L541.47 168.74L527.25 168.74Z"/>
  <path fill="#FFB020" d="M584.93 170.0Q579.14 170.0 574.49 167.89Q569.84 165.79 567.16 161.69Q564.48 157.59 564.48 151.57Q564.48 144.68 567.84 140.88Q571.21 137.08 576.54 135.36Q581.87 133.63 587.78 133.03Q595.76 132.16 599.32 131.42Q602.87 130.68 602.87 127.51L602.87 127.23Q602.87 122.75 600.14 120.26Q597.4 117.77 592.21 117.77Q586.85 117.77 583.68 120.12Q580.5 122.48 579.41 125.48L566.23 122.8Q568.91 114.71 575.94 110.77Q582.97 106.84 592.15 106.84Q596.47 106.84 600.88 107.85Q605.28 108.86 608.94 111.24Q612.61 113.62 614.85 117.69Q617.09 121.77 617.09 127.89L617.09 168.74L603.47 168.74L603.47 160.32L602.93 160.32Q600.9 164.26 596.47 167.13Q592.04 170.0 584.93 170.0ZM588.6 159.45Q595.16 159.45 599.07 155.67Q602.98 151.9 602.98 146.81L602.98 139.59Q602.0 140.36 599.48 140.93Q596.97 141.51 594.15 141.92Q591.33 142.33 589.47 142.6Q584.66 143.26 581.46 145.23Q578.26 147.2 578.26 151.41Q578.26 155.34 581.16 157.39Q584.06 159.45 588.6 159.45ZM629.38 168.74L629.38 107.6L643.6 107.6L643.6 168.74L629.38 168.74ZM636.49 98.96Q633.1 98.96 630.67 96.69Q628.24 94.42 628.24 91.14Q628.24 87.91 630.67 85.64Q633.1 83.38 636.49 83.38Q639.94 83.38 642.37 85.64Q644.81 87.91 644.81 91.14Q644.81 94.42 642.37 96.69Q639.94 98.96 636.49 98.96Z"/>
</svg>
